<?xml version="1.0" standalone="no"?>
<!DOCTYPE svg PUBLIC "-//W3C//DTD SVG 20010904//EN"
 "http://www.w3.org/TR/2001/REC-SVG-20010904/DTD/svg10.dtd">
<svg version="1.0" xmlns="http://www.w3.org/2000/svg"
 width="500.000000pt" height="500.000000pt" viewBox="0 0 500.000000 500.000000"
 preserveAspectRatio="xMidYMid meet">

<g transform="translate(0.000000,500.000000) scale(0.100000,-0.100000)"
fill="#3b5bdb" stroke="none">
<path d="M2344 4800 c-40 -10 -94 -30 -120 -43 -27 -14 -366 -210 -754 -435
-677 -393 -708 -412 -785 -488 -93 -91 -144 -179 -175 -300 -19 -74 -20 -114
-20 -954 0 -840 1 -880 20 -954 30 -116 83 -209 170 -296 71 -71 110 -95 804
-499 401 -234 755 -435 785 -447 79 -31 192 -48 279 -40 73 6 73 6 125 -32
222 -162 454 -232 721 -219 227 12 394 77 556 217 100 86 102 75 -45 249
l-127 151 -54 -50 c-156 -141 -390 -179 -563 -91 -36 19 -41 25 -30 35 8 7
261 157 564 332 505 293 555 325 620 389 80 80 125 151 163 257 l27 73 3 890
c3 1002 5 969 -71 1125 -33 68 -57 101 -122 164 -77 76 -109 96 -785 488 -388
225 -727 421 -753 435 -121 61 -297 79 -433 43z m246 -443 c128 -63 1389 -807
1420 -838 22 -21 41 -53 49 -80 9 -33 11 -246 9 -879 -3 -975 9 -880 -123
-967 -43 -29 -83 -53 -88 -53 -5 0 -7 10 -4 22 3 13 15 66 28 118 30 127 34
417 6 552 -110 543 -533 945 -1100 1048 -156 29 -417 29 -573 0 -543 -98 -957
-468 -1083 -966 -58 -233 -53 -460 16 -751 3 -13 1 -23 -4 -23 -5 0 -45 24
-88 53 -61 40 -84 62 -102 97 l-22 45 -1 843 c0 839 0 842 21 888 12 25 36 56
53 69 36 28 1376 811 1421 831 45 20 114 16 165 -9z m-1 -1557 c303 -31 533
-193 655 -460 76 -166 92 -430 39 -625 -64 -237 -235 -430 -456 -515 -111 -43
-203 -60 -327 -60 -517 0 -862 396 -810 930 15 153 49 258 123 375 123 196
341 329 582 354 44 5 83 9 86 10 4 0 52 -4 108 -9z"/>
</g>
</svg>
