<?xml version="1.0" standalone="no"?>
<!DOCTYPE svg PUBLIC "-//W3C//DTD SVG 20010904//EN"
 "http://www.w3.org/TR/2001/REC-SVG-20010904/DTD/svg10.dtd">
<svg version="1.0" xmlns="http://www.w3.org/2000/svg"
 width="500.000000pt" height="150.000000pt" viewBox="0 0 500.000000 150.000000"
 preserveAspectRatio="xMidYMid meet">

<g transform="translate(0.000000,150.000000) scale(0.100000,-0.100000)"
fill="#3b5bdb" stroke="none">
<path d="M666 1318 c-41 -15 -346 -196 -374 -221 -49 -45 -52 -62 -52 -287 0
-226 5 -256 51 -296 29 -25 327 -200 376 -220 19 -8 42 -13 51 -10 9 3 44 -8
76 -24 70 -35 139 -39 201 -11 60 27 68 41 41 74 -22 27 -23 27 -52 12 -16 -8
-50 -15 -76 -15 -78 0 -64 26 49 90 145 83 182 109 200 144 13 24 18 68 21
193 2 90 1 192 -3 228 -11 107 -19 114 -305 278 -123 70 -159 82 -204 65z
m220 -207 l169 -99 3 -199 c2 -162 0 -202 -12 -212 -12 -10 -14 0 -14 62 0 96
-27 161 -93 222 -81 76 -181 105 -291 85 -166 -30 -268 -151 -268 -317 0 -46
-3 -64 -10 -57 -7 7 -9 85 -8 215 l3 204 165 97 c91 54 170 97 176 98 7 0 88
-44 180 -99z m-111 -252 c94 -26 148 -133 125 -246 -18 -86 -70 -134 -161
-148 -126 -19 -229 72 -228 200 1 98 42 161 126 191 47 16 86 17 138 3z"/>
<path d="M4632 1163 c-23 -9 -41 -57 -29 -78 26 -48 69 -57 111 -24 34 26 34
62 0 88 -26 20 -55 25 -82 14z"/>
<path d="M2060 1025 l0 -104 -52 24 c-59 28 -92 31 -149 14 -164 -50 -208
-276 -74 -387 69 -56 145 -66 221 -27 59 30 64 31 64 5 0 -18 7 -20 55 -20
l55 0 0 300 0 300 -60 0 -60 0 0 -105z m-66 -159 c50 -21 66 -51 66 -122 0
-72 -21 -106 -75 -124 -89 -29 -165 29 -165 127 0 99 84 157 174 119z"/>
<path d="M4070 830 l0 -300 55 0 55 0 0 113 c0 131 11 178 47 207 37 29 103
27 140 -4 28 -24 28 -24 31 -170 l4 -146 54 0 54 0 0 149 c0 164 -6 190 -53
239 -54 56 -135 67 -213 27 -27 -14 -52 -25 -56 -25 -5 0 -8 47 -8 105 l0 105
-55 0 -55 0 0 -300z"/>
<path d="M1322 951 c-71 -25 -77 -32 -58 -70 9 -17 18 -31 19 -31 1 0 20 7 42
15 83 29 176 11 189 -37 11 -44 9 -45 -86 -50 -67 -4 -104 -11 -134 -26 -101
-52 -89 -175 21 -218 56 -21 126 -15 166 15 35 26 49 27 49 1 0 -18 7 -20 56
-20 l56 0 -4 153 c-4 167 -12 193 -68 240 -58 49 -155 60 -248 28z m198 -267
c0 -15 -12 -38 -29 -55 -69 -68 -198 -8 -134 63 13 14 31 18 90 18 72 0 73 0
73 -26z"/>
<path d="M2343 949 c-35 -11 -63 -24 -63 -30 0 -5 7 -23 15 -39 l15 -29 41 14
c64 23 133 19 163 -7 14 -13 28 -35 31 -49 l6 -26 -93 -5 c-61 -3 -107 -11
-132 -23 -42 -20 -76 -67 -76 -105 0 -64 81 -129 161 -130 19 0 58 11 85 25
59 30 64 31 64 5 0 -17 7 -20 50 -20 l50 0 0 149 c0 82 -5 162 -11 178 -17 45
-60 82 -113 98 -66 20 -118 18 -193 -6z m197 -273 c0 -47 -37 -76 -96 -76 -50
0 -74 19 -74 60 0 39 22 49 103 50 l67 0 0 -34z"/>
<path d="M2936 945 c-57 -30 -66 -31 -66 -5 0 18 -7 20 -55 20 l-55 0 0 -215
0 -215 59 0 60 0 3 146 c3 146 3 146 31 170 20 17 40 24 68 24 85 0 99 -31 99
-217 l0 -123 55 0 55 0 1 123 c0 136 12 185 49 204 42 21 98 16 125 -12 24
-23 25 -28 25 -170 l0 -145 60 0 60 0 0 143 c-1 192 -19 238 -105 278 -22 10
-56 19 -75 19 -40 0 -108 -29 -129 -53 -16 -21 -47 -22 -54 -3 -8 21 -89 56
-129 56 -19 0 -56 -11 -82 -25z"/>
<path d="M3748 961 c-204 -67 -238 -306 -57 -406 46 -25 65 -30 124 -30 45 0
81 6 100 17 31 16 85 66 85 77 0 3 -18 16 -40 27 -38 21 -39 21 -56 3 -54 -60
-178 -40 -203 33 -23 64 -7 145 32 171 53 35 134 29 171 -12 17 -18 18 -18 56
3 22 11 40 24 40 27 0 11 -54 61 -84 76 -35 18 -130 26 -168 14z"/>
<path d="M4610 745 l0 -215 60 0 60 0 0 215 0 215 -60 0 -60 0 0 -215z"/>
</g>
</svg>
